RBDS001runT35_grf
version=1
nRows=27
nColumns=19
inDegrees=no
endheader
time	ground_force_r_vx	ground_force_r_vy	ground_force_r_vz	ground_force_r_px	ground_force_r_py	ground_force_r_pz	ground_force_r_mx	ground_force_r_my	ground_force_r_mz	ground_force_l_vx	ground_force_l_vy	ground_force_l_vz	ground_force_l_px	ground_force_l_py	ground_force_l_pz	ground_force_l_mx	ground_force_l_my	ground_force_l_mz
      0.00000000	      0.00000000	      0.00000000	      0.00000000	      0.00000000	      0.00000000	      0.00000000	      0.00000000	      0.00000000	      0.00000000	   -116.12397932	   1496.37926300	      1.16870337	      2.39943145	      0.00000000	      1.06291016	     -0.00000000	      8.92436175	     -0.00000000
      0.00100000	      0.00000000	      0.00000000	      0.00000000	      0.00000000	      0.00000000	      0.00000000	      0.00000000	      0.00000000	      0.00000000	   -112.64080524	   1497.17038732	      1.78163639	      2.39753216	      0.00000000	      1.06282701	     -0.00000000	      8.83787482	     -0.00000000
      0.00200000	      0.00000000	      0.00000000	      0.00000000	      0.00000000	      0.00000000	      0.00000000	      0.00000000	      0.00000000	      0.00000000	   -109.15763115	   1497.96151163	      2.39456942	      2.39563287	      0.00000000	      1.06274385	     -0.00000000	      8.75138789	     -0.00000000
      0.00300000	      0.00000000	      0.00000000	      0.00000000	      0.00000000	      0.00000000	      0.00000000	      0.00000000	      0.00000000	      0.00000000	   -105.67445707	   1498.75263595	      3.00750244	      2.39373358	      0.00000000	      1.06266069	     -0.00000000	      8.66490096	     -0.00000000
      0.00400000	      0.00000000	      0.00000000	      0.00000000	      0.00000000	      0.00000000	      0.00000000	      0.00000000	      0.00000000	      0.00000000	   -102.14760232	   1499.53751785	      3.61222922	      2.39182463	      0.00000000	      1.06257709	     -0.00000000	      8.58250837	     -0.00000000
      0.00500000	      0.00000000	      0.00000000	      0.00000000	      0.00000000	      0.00000000	      0.00000000	      0.00000000	      0.00000000	      0.00000000	    -98.59890724	   1500.31927854	      4.21285287	      2.38991085	      0.00000000	      1.06249329	     -0.00000000	      8.50216294	     -0.00000000
      0.00600000	      0.00000000	      0.00000000	      0.00000000	      0.00000000	      0.00000000	      0.00000000	      0.00000000	      0.00000000	      0.00000000	    -95.05021217	   1501.10103924	      4.81347653	      2.38799707	      0.00000000	      1.06240948	     -0.00000000	      8.42181752	     -0.00000000
      0.00700000	      0.00000000	      0.00000000	      0.00000000	      0.00000000	      0.00000000	      0.00000000	      0.00000000	      0.00000000	      0.00000000	    -91.47007960	   1501.84173248	      5.40361864	      2.38607254	      0.00000000	      1.06232599	     -0.00000000	      8.34418407	     -0.00000000
      0.00800000	      0.00000000	      0.00000000	      0.00000000	      0.00000000	      0.00000000	      0.00000000	      0.00000000	      0.00000000	      0.00000000	    -87.82707204	   1502.50029081	      5.97279768	      2.38412651	      0.00000000	      1.06224316	     -0.00000000	      8.27197455	     -0.00000000
      0.00900000	      0.00000000	      0.00000000	      0.00000000	      0.00000000	      0.00000000	      0.00000000	      0.00000000	      0.00000000	      0.00000000	    -84.18406449	   1503.15884915	      6.54197672	      2.38218047	      0.00000000	      1.06216033	     -0.00000000	      8.19976504	     -0.00000000
      0.01000000	      0.00000000	      0.00000000	      0.00000000	      0.00000000	      0.00000000	      0.00000000	      0.00000000	      0.00000000	      0.00000000	    -80.54105693	   1503.81740748	      7.11115576	      2.38023444	      0.00000000	      1.06207750	     -0.00000000	      8.12755552	     -0.00000000
      0.01100000	      0.00000000	      0.00000000	      0.00000000	      0.00000000	      0.00000000	      0.00000000	      0.00000000	      0.00000000	      0.00000000	    -76.77639929	   1504.23284467	      7.62976433	      2.37823808	      0.00000000	      1.06199755	     -0.00000000	      8.06516325	     -0.00000000
      0.01200000	      0.00000000	      0.00000000	      0.00000000	      0.00000000	      0.00000000	      0.00000000	      0.00000000	      0.00000000	      0.00000000	    -73.01174164	   1504.64828186	      8.14837290	      2.37624172	      0.00000000	      1.06191760	     -0.00000000	      8.00277099	     -0.00000000
      0.01300000	      0.00000000	      0.00000000	      0.00000000	      0.00000000	      0.00000000	      0.00000000	      0.00000000	      0.00000000	      0.00000000	    -69.24708399	   1505.06371906	      8.66698147	      2.37424536	      0.00000000	      1.06183765	     -0.00000000	      7.94037872	     -0.00000000
      0.01400000	      0.00000000	      0.00000000	      0.00000000	      0.00000000	      0.00000000	      0.00000000	      0.00000000	      0.00000000	      0.00000000	    -65.38537154	   1505.23518226	      9.13950028	      2.37220384	      0.00000000	      1.06176104	     -0.00000000	      7.88537400	     -0.00000000
      0.01500000	      0.00000000	      0.00000000	      0.00000000	      0.00000000	      0.00000000	      0.00000000	      0.00000000	      0.00000000	      0.00000000	    -61.47513167	   1505.28465848	      9.58897420	      2.37013974	      0.00000000	      1.06168611	     -0.00000000	      7.83406305	     -0.00000000
      0.01600000	      0.00000000	      0.00000000	      0.00000000	      0.00000000	      0.00000000	      0.00000000	      0.00000000	      0.00000000	      0.00000000	    -57.56489181	   1505.33413469	     10.03844812	      2.36807564	      0.00000000	      1.06161117	     -0.00000000	      7.78275210	     -0.00000000
      0.01700000	      0.00000000	      0.00000000	      0.00000000	      0.00000000	      0.00000000	      0.00000000	      0.00000000	      0.00000000	      0.00000000	    -53.59989628	   1505.22074004	     10.45906288	      2.36598366	      0.00000000	      1.06153869	     -0.00000000	      7.73539172	     -0.00000000
      0.01800000	      0.00000000	      0.00000000	      0.00000000	      0.00000000	      0.00000000	      0.00000000	      0.00000000	      0.00000000	      0.00000000	    -49.52538942	   1504.78160366	     10.82195930	      2.36383594	      0.00000000	      1.06147111	     -0.00000000	      7.69593250	     -0.00000000
      0.01900000	      0.00000000	      0.00000000	      0.00000000	      0.00000000	      0.00000000	      0.00000000	      0.00000000	      0.00000000	      0.00000000	    -45.45088256	   1504.34246727	     11.18485572	      2.36168821	      0.00000000	      1.06140353	     -0.00000000	      7.65647327	     -0.00000000
      0.02000000	      0.00000000	      0.00000000	      0.00000000	      0.00000000	      0.00000000	      0.00000000	      0.00000000	      0.00000000	      0.00000000	    -41.37637569	   1503.90333089	     11.54775213	      2.35954049	      0.00000000	      1.06133595	     -0.00000000	      7.61701405	     -0.00000000
      0.02100000	      0.00000000	      0.00000000	      0.00000000	      0.00000000	      0.00000000	      0.00000000	      0.00000000	      0.00000000	      0.00000000	    -37.12581126	   1502.85608295	     11.80829832	      2.35729550	      0.00000000	      1.06127818	     -0.00000000	      7.58963854	     -0.00000000
      0.02200000	      0.00000000	      0.00000000	      0.00000000	      0.00000000	      0.00000000	      0.00000000	      0.00000000	      0.00000000	      0.00000000	    -32.87524682	   1501.80883501	     12.06884450	      2.35505051	      0.00000000	      1.06122042	     -0.00000000	      7.56226302	     -0.00000000
      0.02300000	      0.00000000	      0.00000000	      0.00000000	      0.00000000	      0.00000000	      0.00000000	      0.00000000	      0.00000000	      0.00000000	    -28.62468239	   1500.76158707	     12.32939069	      2.35280552	      0.00000000	      1.06116265	     -0.00000000	      7.53488751	     -0.00000000
      0.02400000	      0.00000000	      0.00000000	      0.00000000	      0.00000000	      0.00000000	      0.00000000	      0.00000000	      0.00000000	      0.00000000	    -24.25439995	   1499.23320299	     12.51264760	      2.35048844	      0.00000000	      1.06111308	     -0.00000000	      7.51535539	     -0.00000000
      0.02500000	      0.00000000	      0.00000000	      0.00000000	      0.00000000	      0.00000000	      0.00000000	      0.00000000	      0.00000000	      0.00000000	    -19.82425850	   1497.46425084	     12.65725987	      2.34813533	      0.00000000	      1.06106762	     -0.00000000	      7.49974495	     -0.00000000
      0.02600000	      0.00000000	      0.00000000	      0.00000000	      0.00000000	      0.00000000	      0.00000000	      0.00000000	      0.00000000	      0.00000000	    -15.39411705	   1495.69529869	     12.80187215	      2.34578222	      0.00000000	      1.06102216	     -0.00000000	      7.48413452	     -0.00000000
